<?xml version="1.0" standalone="no"?>
<!DOCTYPE svg PUBLIC "-//W3C//DTD SVG 1.1//EN" "http://www.w3.org/Graphics/SVG/1.1/DTD/svg11.dtd" >
<!--
2013-9-30: Created.
-->
<svg>
<metadata>
Created by iconfont
</metadata>
<defs>

<font id="iconfont" horiz-adv-x="1024" >
  <font-face
    font-family="iconfont"
    font-weight="500"
    font-stretch="normal"
    units-per-em="1024"
    ascent="896"
    descent="-128"
  />
    <missing-glyph />
    
    <glyph glyph-name="lb-bjbq" unicode="&#58893;" d="M512 384m-512 0a512 512 0 1 1 1024 0 512 512 0 1 1-1024 0ZM203.662222 271.36v-170.666667h170.666667l341.333333 341.333334-170.666666 170.666666-341.333334-341.333333zM601.884444 669.582222l-37.546666-37.546666 167.822222-173.511112 40.391111 40.391112-170.666667 170.666666z"  horiz-adv-x="1024" />

    
    <glyph glyph-name="lb-cjbq" unicode="&#58894;" d="M512 896a512 512 0 1 1 512-512 512 512 0 0 1-512 512z m227.555556-568.888889h-170.666667v-170.666667H455.111111v170.666667H284.444444V440.888889h170.666667V611.555556h113.777778v-170.666667h170.666667z"  horiz-adv-x="1024" />

    
    <glyph glyph-name="index-more" unicode="&#58895;" d="M1375.458341 457.434405l-52.361923 56.193285L964.225671 867.389956a85.567046 85.567046 0 0 1-127.712009 0 86.844166 86.844166 0 0 1 0-127.71201l284.797781-275.85794H77.904326a77.904326 77.904326 0 1 1 0-155.808652h1043.407117L841.622142 28.32205399999998a86.844166 86.844166 0 0 1 0-127.71201 85.567046 85.567046 0 0 1 127.712009 0l353.762267 357.593627 52.361923 52.361924a102.169608 102.169608 0 0 1 0 143.03745z"  horiz-adv-x="1418" />

    
    <glyph glyph-name="xin-yy" unicode="&#58896;" d="M539.945365 807.384778A319.218615 319.218615 0 0 1 0.040731 571.851381c0-408.97776 539.904634-643.161395 539.904634-643.161394s539.904634 254.430059 539.904633 643.161394c0 297.622429-299.647072 415.051687-539.904633 235.533397z"  horiz-adv-x="1143" />

    
    <glyph glyph-name="ht-cxq" unicode="&#58897;" d="M893.231477 896H130.768523A113.568339 113.568339 0 0 1 17.200184 782.902899v-797.33456a113.568339 113.568339 0 0 1 113.568339-113.097101h762.462954a113.568339 113.568339 0 0 1 113.568339 113.097101V782.902899A113.568339 113.568339 0 0 1 893.231477 896zM912.552232-14.431660999999963a18.849517 18.849517 0 0 0-19.320755-18.849517H130.768523a18.849517 18.849517 0 0 0-19.320755 18.849517V782.902899a18.849517 18.849517 0 0 0 19.320755 18.849517h762.462954a18.849517 18.849517 0 0 0 19.320755-18.849517zM229.257248 643.416475h565.485504v-94.247584h-565.485504zM229.257248 431.359411h471.23792v-94.247584h-471.23792zM229.257248 219.30234700000005h235.61896v-94.247584h-235.61896z"  horiz-adv-x="1024" />

    
    <glyph glyph-name="ht-share" unicode="&#58898;" d="M837.409532 174.28871700000002a148.754394 148.754394 0 0 1-115.318774-55.271128l-395.086211 197.884285a158.989788 158.989788 0 0 1 4.776517 36.165059 154.89563 154.89563 0 0 1-8.188315 47.082813l409.415763 242.920019a149.436753 149.436753 0 1 1-41.623936 103.036301 150.801473 150.801473 0 0 1 8.188315-46.400454l-409.415763-246.331817a150.119113 150.119113 0 1 1 7.505956-197.201926l395.086211-197.884285a153.530911 153.530911 0 0 1-4.776517-35.4827 150.119113 150.119113 0 1 1 149.436754 149.436754z"  horiz-adv-x="1024" />

    
    <glyph glyph-name="ht-hmore" unicode="&#58899;" d="M73.142857 749.714286h1024a73.142857 73.142857 0 0 1 0 146.285714H73.142857a73.142857 73.142857 0 0 1 0-146.285714zM1097.142857 457.142857H73.142857a73.142857 73.142857 0 0 1 0-146.285714h1024a73.142857 73.142857 0 0 1 0 146.285714zM1097.142857 18.285713999999984H73.142857a73.142857 73.142857 0 0 1 0-146.285714h1024a73.142857 73.142857 0 0 1 0 146.285714z"  horiz-adv-x="1170" />

    
    <glyph glyph-name="ht-upto" unicode="&#58900;" d="M512 384m-512 0a512 512 0 1 1 1024 0 512 512 0 1 1-1024 0ZM259.413333 347.733333A42.666667 42.666667 0 0 0 256 407.893333a42.666667 42.666667 0 0 0 60.16 5.12L447.146667 298.66666699999996l260.693333 260.693333a42.666667 42.666667 0 0 0 59.306667 0 42.666667 42.666667 0 0 0 0-61.44l-298.666667-298.666667a25.6 25.6 0 0 0-28.586667-5.12z"  horiz-adv-x="1024" />

    
    <glyph glyph-name="lb-biaoqianx" unicode="&#58901;" d="M512 384m-512 0a512 512 0 1 1 1024 0 512 512 0 1 1-1024 0ZM306.858667 640.256L767.829333 179.20000000000005l-51.2-51.285333-461.056 460.970666zM255.744 178.85866699999997L716.8 639.829333l51.285333-51.2-460.970666-461.056z"  horiz-adv-x="1024" />

    
    <glyph glyph-name="lb-more" unicode="&#58902;" d="M512.004192 896a512 512 0 1 1 512-512 512 512 0 0 1-512 512z m0-950.857143a442.514286 442.514286 0 1 0 442.514285 438.857143 442.514286 442.514286 0 0 0-442.514285-442.514286zM525.901334 310.85714299999995a16.822857 16.822857 0 0 0-27.794285 0l-163.108572 219.428571-54.857143-40.96 163.108572-219.428571a85.577143 85.577143 0 0 1 137.508571 0l163.108572 219.428571-54.857143 40.96z"  horiz-adv-x="1026" />

    
    <glyph glyph-name="chat" unicode="&#58903;" d="M917.21804 18.285713999999984h-179.931429a16.822857 16.822857 0 0 1-13.897143-6.582857l-100.205714-102.4a121.417143 121.417143 0 0 0-169.691429 0l-100.205714 99.474286a18.285714 18.285714 0 0 1-13.897143 9.508571H159.45804A160.182857 160.182857 0 0 0 0.006611 174.81142899999998V734.354286A160.182857 160.182857 0 0 0 159.45804 896h759.222857a160.914286 160.914286 0 0 0 160.182857-160.182857v-561.005714a163.108571 163.108571 0 0 0-161.645714-156.525715z m0 79.725715a79.725714 79.725714 0 0 1 79.725714 79.725714V734.354286a79.725714 79.725714 0 0 1-79.725714 79.725714H157.263754a79.725714 79.725714 0 0 1-79.725714-79.725714v-559.542857a79.725714 79.725714 0 0 1 79.725714-83.382858h179.931429a95.085714 95.085714 0 0 0 73.142857-29.988571l100.205714-100.205714a38.034286 38.034286 0 0 1 55.588571 0l100.205715 100.205714a99.474286 99.474286 0 0 0 73.142857 29.988571z m-619.52 416.914285a59.245714 59.245714 0 0 0 59.977143-57.782857v-40.228571a59.977143 59.977143 0 0 0-119.954286 0v40.228571a58.514286 58.514286 0 0 0 59.977143 59.977143z m242.102857 0a58.514286 58.514286 0 0 0 57.051428-57.782857v-40.228571a59.977143 59.977143 0 0 0-119.954285 0v40.228571a59.245714 59.245714 0 0 0 62.902857 57.782857z m239.908571 0a58.514286 58.514286 0 0 0 59.977143-59.977143v-40.228571a59.977143 59.977143 0 0 0-119.954286 0v42.422857a59.245714 59.245714 0 0 0 59.977143 59.977143z m0 0"  horiz-adv-x="1129" />

    
    <glyph glyph-name="lb-cle" unicode="&#58905;" d="M949.971844 895.986517h-79.402027a58.427907 58.427907 0 0 1-43.446392-17.977818l-134.83363-134.83363a74.907573 74.907573 0 0 0-69.664043-20.974121l-38.951937 8.239833a157.305902 157.305902 0 0 1-102.623375-12.734287L215.877633 591.861772l-28.464877-14.232439-55.431604-26.21765-90.638163-47.191771a74.907573 74.907573 0 0 1-40.450089-55.431603 74.907573 74.907573 0 0 1 20.97412-64.420513l486.899222-486.899221a84.645557 84.645557 0 0 1 60.675134-24.719499h13.483363a85.394633 85.394633 0 0 1 62.173285 45.693619l40.450089 80.900178 27.715802 57.678831 12.734287 25.468575 142.324388 299.63029a83.896481 83.896481 0 0 1 5.24353 64.420512 125.844722 125.844722 0 0 0 26.966726 128.091949l117.604889 125.095647a47.940846 47.940846 0 0 1 12.734288 32.959331v82.39833A80.900178 80.900178 0 0 1 949.971844 895.986517z m-329.593319-830.72498l-50.937149-104.121526-472.666783 472.666783 103.37245 51.686225 209.741203-210.490279zM943.230163 746.171372l-106.368753-113.859511a216.482885 216.482885 0 0 1-50.188074-204.497673 27.715802 27.715802 0 0 0 0-20.225044L660.828614 148.40894300000002l-374.537862 374.537862 232.96255 116.106738a70.413118 70.413118 0 0 0 46.442695 5.24353l38.951938-7.490757a163.298508 163.298508 0 0 1 149.815145 44.195467l128.091949 128.091949h61.424209z"  horiz-adv-x="1030" />

    
    <glyph glyph-name="lb-xilaxioa" unicode="&#58906;" d="M910.628571 896L0-21.942857000000004l106.057143-106.057143L914.285714 680.228571 1722.514286-128l106.057143 106.057143L910.628571 896z"  horiz-adv-x="1828" />

    
    <glyph glyph-name="lb-xuz" unicode="&#58907;" d="M0 896h1024v-1024H0zM396.288 76.79999999999995a40.96 40.96 0 0 1 46.08 8.192L921.6 571.392a68.608 68.608 0 1 1-96.256 102.4L409.6 249.856 193.536 431.104a69.632 69.632 0 0 1-97.28-8.192 68.608 68.608 0 0 1 8.192-102.4z"  horiz-adv-x="1024" />

    
    <glyph glyph-name="setch" unicode="&#58908;" d="M501.214175 894.541622a473.972967 473.972967 0 1 1 473.972966-473.972967 473.972967 473.972967 0 0 1-473.972966 473.972967z m0-838.567557a364.59459 364.59459 0 1 0 364.594589 364.59459 364.59459 364.59459 0 0 0-364.594589-364.59459zM979.562276-28.976474000000053l-36.459459 36.459459a58.006999 58.006999 0 0 1-82.033782-82.033783l36.459459-36.459459a58.006999 58.006999 0 0 1 82.033782 82.033783z"  horiz-adv-x="1024" />

    
    <glyph glyph-name="xiala-black" unicode="&#58909;" d="M1679.36 814.08C1638.4 855.04 1556.48 855.04 1515.52 814.08L880.64 179.20000000000005 245.76 814.08C204.8 855.04 122.88 855.04 81.92 814.08 40.96 773.12 40.96 711.6800000000001 81.92 670.72l716.8-716.8c20.48-20.48 61.44-40.96 81.92-40.96 20.48 0 61.44 0 81.92 20.48l716.8 716.8c40.96 61.44 40.96 122.88 0 163.84z"  horiz-adv-x="1761" />

    
    <glyph glyph-name="xin-black" unicode="&#58910;" d="M539.234696 807.50143a318.798398 318.798398 0 0 1-539.193908-235.223342c0-408.439385 539.193908-642.314743 539.193908-642.314743s539.193908 254.095129 539.193908 642.314743c0 297.230642-299.252619 414.505317-539.193908 235.223342z m0 0"  horiz-adv-x="1144" />

    
    <glyph glyph-name="sx-xl" unicode="&#58913;" d="M908.288 315.39200000000005l-32.768 32.768a46.3872 46.3872 0 0 1-64.512 0L573.44 110.59199999999998V850.944a39.936 39.936 0 0 1-39.936 39.936H491.52a39.936 39.936 0 0 1-39.936-39.936v-740.352L212.992 348.15999999999997a46.3872 46.3872 0 0 1-64.512 0l-32.768-32.768c-17.408-17.408-17.408-47.104 0-64.512l299.008-299.008 60.416-60.416a52.0192 52.0192 0 0 1 73.728 0l60.416 60.416L908.288 250.88c17.408 18.432 17.408 47.104 0 64.512z"  horiz-adv-x="1024" />

    
    <glyph glyph-name="ht-cha" unicode="&#58915;" d="M932.076-106.894L511.964 313.21799999999996l-420.04-420.04a50.099 50.099 0 0 0-70.854-0.072 50.17 50.17 0 0 0 0.108 70.818l420.076 420.04L21.178 804.04A50.099 50.099 0 1 0 92.03 874.858l420.04-420.04 420.041 420.04a50.027 50.027 0 1 0 70.746-70.746l-420.04-420.04L1002.93-36.039999999999964c19.61-19.575 19.61-51.28 0.036-70.818a50.027 50.027 0 0 0-70.89-0.036z"  horiz-adv-x="1024" />

    
    <glyph glyph-name="ht-gou" unicode="&#58917;" d="M26.621 385.82c-17.535 17.075-17.931 45.147-0.857 62.696 17.06 17.536 45.132 17.933 62.68 0.858L384.29 161.57100000000003l558.469 550.186c17.458 17.168 45.513 16.923 62.681-0.52 17.168-17.46 16.937-45.53-0.52-62.682L415.561 67.94000000000005c-17.12-16.864-44.67-17.016-61.977-0.17L26.621 385.82z"  horiz-adv-x="1024" />

    
    <glyph glyph-name="-edit" unicode="&#58919;" d="M78.268008 20.188016999999945h7.335l220.052996 45.476999a112.959998 112.959998 0 0 1 22.006 15.404l525.193989 549.399989a45.477999 45.477999 0 0 1 0 64.548999L677.545997 878.396a41.076999 41.076999 0 0 1-62.347999 0L92.205008 331.93001100000004a21.272 21.272 0 0 1-14.67-22.739L34.256009 79.60201600000005a53.545999 53.545999 0 0 1 14.67-41.809999 29.339999 29.339999 0 0 1 29.340999-17.604z m83.619999 252.326995l485.58499 507.58999 112.959998-116.627997-485.58399-507.589991-138.633998-26.405999z m806.862984-324.210993H52.595009a17.604 17.604 0 0 1-18.338-19.072v-38.141999a17.604 17.604 0 0 1 18.338-19.072h916.889982a17.604 17.604 0 0 1 18.337 19.072v38.141999a17.604 17.604 0 0 1-18.338 17.604z"  horiz-adv-x="1024" />

    
    <glyph glyph-name="xiangqing-kong" unicode="&#58920;" d="M735.573333 802.133333c-75.093333 0-176.128-21.162667-223.573333-76.8-47.445333 55.637333-148.48 76.8-223.573333 76.8C146.090667 802.133333 34.133333 679.594667 34.133333 526.336a320.853333 320.853333 0 0 1 19.456-117.077333s11.264-34.133333 19.456-53.248C181.930667 119.12533299999996 512-34.13333299999999 512-34.13333299999999s330.069333 153.258667 438.954667 392.874666a375.466667 375.466667 0 0 1 19.456 53.248 391.168 391.168 0 0 1 19.456 117.077334 263.168 263.168 0 0 1-254.293334 273.066666z m181.930667-375.466666c-5.802667-13.994667-13.994667-39.253333-16.725333-44.714667C819.2 202.75199999999995 584.362667 71.67999999999995 512 30.03733299999999c-72.362667 41.642667-307.2 172.714667-388.778667 351.232a328.021333 328.021333 0 0 0-16.725333 47.445334 307.2 307.2 0 0 0-16.725333 97.621333c0 122.538667 89.770667 220.16 198.656 220.16a276.138667 276.138667 0 0 0 181.930666-68.266667L512 629.418667l41.642667 47.445333a276.138667 276.138667 0 0 0 181.930666 68.266667 207.530667 207.530667 0 0 0 198.656-217.429334 357.034667 357.034667 0 0 0-16.725333-102.4z"  horiz-adv-x="1024" />

    
    <glyph glyph-name="xq-shixin" unicode="&#58921;" d="M512 734.5493329999999a282.282667 282.282667 0 0 1-477.866667-208.554666c0-361.813333 477.866667-569.344 477.866667-569.344s477.866667 225.28 477.866667 569.344C989.866667 789.845333 723.626667 893.269333 512 734.5493329999999z m0 0"  horiz-adv-x="1024" />

    
    <glyph glyph-name="lb-huixia-copy" unicode="&#58923;" d="M908.288 315.39200000000005L875.52 348.15999999999997a46.387 46.387 0 0 1-64.512 0L573.44 110.59199999999998V850.944A39.936 39.936 0 0 1 533.504 890.88H491.52a39.936 39.936 0 0 1-39.936-39.936v-740.352L212.992 348.15999999999997a46.387 46.387 0 0 1-64.512 0l-32.768-32.768c-17.408-17.408-17.408-47.104 0-64.512L414.72-48.12800000000004l60.416-60.416a52.02 52.02 0 0 1 73.728 0l60.416 60.416L908.288 250.88c17.408 18.432 17.408 47.104 0 64.512z"  horiz-adv-x="1024" />

    
    <glyph glyph-name="ht-morezhaunghan" unicode="&#58924;" d="M693.9136 384l326.8096 326.8096a76.8 76.8 0 1 1-108.9024 108.9024l-326.8096-326.7584L258.2016 819.712a76.8 76.8 0 0 1-108.9536-108.9024L476.16 384l-326.912-326.8096a76.8 76.8 0 0 1 108.9536-108.9024l326.8096 326.7584 326.8096-326.7584a76.8 76.8 0 1 1 108.9024 108.9024z"  horiz-adv-x="1170" />

    
    <glyph glyph-name="chanpin" unicode="&#58951;" d="M999.923028 639.620332a40.037751 40.037751 0 0 1-22.7801 36.586221L533.966442 891.582041a37.276527 37.276527 0 0 1-35.205609 0L51.442511 676.896859a33.824997 33.824997 0 0 1-17.947958-16.567346 37.276527 37.276527 0 0 1-9.664285-26.23163v-499.091277a40.728057 40.728057 0 0 1 22.7801-36.58622 25.541324 25.541324 0 0 1 9.664285-6.212755l442.48618-215.375489a51.772954 51.772954 0 0 1 17.947958-3.45153 40.037751 40.037751 0 0 1 17.947957 4.141836l442.48618 214.685183a40.037751 40.037751 0 0 1 22.089794 42.798975m-893.256033 24.160712v414.183633l365.171902-171.886208 4.141836-421.776999z m414.183632 311.328031L166.723621 639.620332l350.675476 169.124983 345.153027-169.124983z m400.377511-316.850479l-363.100984-174.647432-4.141836 414.183633 364.481596 176.718349z"  horiz-adv-x="1024" />

    
    <glyph glyph-name="qushi" unicode="&#58952;" d="M1029.35149-128H1023.664466a113.740496 113.740496 0 0 0-97.816827 73.931323L671.068927 617.00025 541.404762 356.534514a121.702331 121.702331 0 0 0-113.740496-67.106893h-341.221489A86.442777 86.442777 0 0 0 0 374.732993a86.442777 86.442777 0 0 0 85.305372 85.305372h317.335984L592.587985 841.069027a97.816827 97.816827 0 0 0 179.709984-9.099239l267.290166-712.015506 318.473389 557.328431A247.954282 247.954282 0 0 0 1571.893657 801.259854h162.64891a86.442777 86.442777 0 0 0 85.305372-85.305372 86.442777 86.442777 0 0 0-85.305372-85.305373h-162.64891a73.931323 73.931323 0 0 1-64.832083-37.534363L1127.168317-71.129752a113.740496 113.740496 0 0 0-97.816827-56.870248z"  horiz-adv-x="1820" />

    
    <glyph glyph-name="yueduren" unicode="&#58953;" d="M948.210364 218.095117a229.864299 229.864299 0 0 1-199.345593 114.93215h-461.027267a230.513633 230.513633 0 1 1 0-460.377933h461.027267a230.513633 230.513633 0 0 1 199.345593 345.445783z m-199.345593-294.797717h-461.027267a179.216233 179.216233 0 1 0 0 358.432467h461.027267a179.216233 179.216233 0 0 0 0-358.432467zM518.351138 384.324667a255.837666 255.837666 0 1 1-255.837667 255.837667A255.188332 255.188332 0 0 1 518.351138 384.324667z m0 461.027267a205.189601 205.189601 0 1 0-204.540267-205.1896A205.189601 205.189601 0 0 0 518.351138 845.351934z"  horiz-adv-x="1024" />

    
    <glyph glyph-name="daochu" unicode="&#58954;" d="M991.064366 416.936233a32.935634 32.935634 0 0 1-32.935634-32.935634v-377.262717A69.464246 69.464246 0 0 0 888.664486-62.127534H134.737882a69.464246 69.464246 0 0 0-68.865416 68.865416V760.664486A69.464246 69.464246 0 0 0 134.737882 830.128732h377.262717a32.935634 32.935634 0 0 1 0 65.871268h-377.262717A134.736685 134.736685 0 0 1 0.001198 760.664486v-753.926604a134.736685 134.736685 0 0 1 134.736684-134.736684h753.926604a134.736685 134.736685 0 0 1 135.335514 134.736684v377.262717a32.935634 32.935634 0 0 1-32.935634 32.935634zM1012.622236 884.622236A34.133293 34.133293 0 0 1 988.070217 896h-233.543586a32.935634 32.935634 0 1 1 0-65.871268h156.893384L476.070816 394.779534a33.0554 33.0554 0 0 1 46.708718-46.708718L958.128732 783.420015v-159.887533a32.935634 32.935634 0 1 1 65.871268 0V857.076069a34.133293 34.133293 0 0 1-11.377764 27.546167z"  horiz-adv-x="1024" />

    
    <glyph glyph-name="chayuerenshu" unicode="&#58955;" d="M741.659164-128C315.266881-128 23.048232 315.678457 23.048232 315.678457a117.710611 117.710611 0 0 0 0 136.643086S315.266881 896 741.659164 896s720.257235-443.678457 720.257235-443.678457a120.180064 120.180064 0 0 0 0-136.643086s-294.688103-443.678457-720.257235-443.678457z m0 82.315113A712.025723 712.025723 0 0 1 1204.270096 155.163987a1261.067524 1261.067524 0 0 1 135.819936 145.697749c23.871383 28.810289 39.511254 50.212219 50.212219 65.85209a37.041801 37.041801 0 0 1 0 37.864952 735.897106 735.897106 0 0 1-47.742765 62.559486 1245.427653 1245.427653 0 0 1-138.28939 142.405144A707.909968 707.909968 0 0 1 741.659164 813.684887a708.733119 708.733119 0 0 1-463.434084-200.848874A1188.630225 1188.630225 0 0 1 139.935691 470.430868c-23.871383-28.810289-39.511254-51.03537-50.212218-65.85209a37.041801 37.041801 0 0 1 0-38.688103 717.787781 717.787781 0 0 1 46.919614-61.736334A1321.980707 1321.980707 0 0 1 278.22508 155.163987a712.025723 712.025723 0 0 1 463.434084-200.848874z m0 171.215434a256 256 0 1 0 256.823151 256 256.823151 256.823151 0 0 0-256.823151-256z m0 82.315112a170.392283 170.392283 0 1 1-172.038585 170.392283 170.392283 170.392283 0 0 1 172.038585-170.392283z m0 0"  horiz-adv-x="1483" />

    


  </font>
</defs>
</svg>
