<?xml version="1.0" encoding="utf-8"?>
<!-- Generator: Adobe Illustrator 23.0.0, SVG Export Plug-In . SVG Version: 6.00 Build 0)  -->
<svg version="1.1" id="图层_1" xmlns="http://www.w3.org/2000/svg" xmlns:xlink="http://www.w3.org/1999/xlink" x="0px" y="0px"
	 viewBox="0 0 138.2 33.5" style="enable-background:new 0 0 138.2 33.5;" xml:space="preserve">
<title>svglogo black</title>
<g>
	<g>
		<path fill="#FFF" d="M55.3,24.8c-3.6,3.9-6.2,5.4-8.3,4.1c-0.3-0.2-1.5-0.7-0.6-3.5c0.6-1.6,0.6-1.6,3-6.5c1.5-2.9,2.4-5.7,2-8.2
			c-0.1-1.1-0.5-2.1-1-3c0,0.4,0.1,0.7,0.1,1.1c0,3.3-2,6.3-5,7.7l-0.2,0.3c-1.3,2.4-2.3,5-3.2,7.6c-1,3.6-0.5,6.7,1.9,8.2
			c0.9,0.5,1.9,0.8,3,0.8c4.5,0,8.2-2.8,13.1-8.7C60.3,24.8,55.3,24.9,55.3,24.8z"/>
		<path fill="#FFF" d="M33.7,8.5c-3.1,2.8-5.3,6.4-7.5,9.6c-0.8,1.2-1.6,2.2-2.6,3.5c-0.7,1.1-1.5,2.1-2.4,3
			c-0.2,0.2-0.8,0.7-1.1,0.5c-0.3-0.1-0.5-0.4-0.5-1.1c0.2-2.7,4.3-11.8,0.4-15.6c-1.6-1.3-3.8-1.6-5.7-0.8L16.9,0h-5L0.4,33.4h5.1
			l5.2-14.8c1.1-2.9,1.3-6,4.2-5.4c2.5,0.5,1.3,4.2,0.2,8.3l-0.2,0.8c-1,4.2,0.2,7.5,3.5,8.2c0.5,0.1,0.9,0.1,1.4,0.1
			c4.2-0.6,6.5-4.6,7.7-6.3c2.2-3.2,2.5-3.8,3.6-5.3c1.2-1.9,2.6-3.7,4.2-5.3c-1.1-1.5-1.6-3.2-1.6-5C33.7,8.7,33.7,8.6,33.7,8.5z"
			/>
		<path fill="#FFF" d="M48.6,9c0-3.6-2.9-6.5-6.5-6.5S35.6,5.4,35.6,9s2.9,6.5,6.5,6.5C45.7,15.5,48.6,12.6,48.6,9z M38.9,9
			c0-1.8,1.4-3.3,3.2-3.3c0,0,0,0,0,0c1.8,0,3.3,1.4,3.3,3.3c0,1.8-1.4,3.3-3.2,3.3C40.4,12.3,38.9,10.8,38.9,9z"/>
		<polygon fill="#FFF" points="67.5,16.2 71,16.2 69.6,10.6 65.6,10.6 66.1,11.1 		"/>
		<polygon fill="#FFF" points="80.2,16.2 83.7,16.2 86.9,11.1 87.6,10.6 83.6,10.6 		"/>
		<polygon fill="#FFF" points="83.3,22.2 79.6,17.4 76.1,17.4 77.3,16.5 78.5,9.2 74.9,9.2 75.3,9.7 74.3,15.4 66.2,22.2 63.7,22.2
			63,21.8 62.7,23.9 68.3,23.9 75.8,17.7 80.6,23.9 82.4,23.9 82.4,23.9 85.9,23.9 86.3,21.8 85.5,22.2 		"/>
		<path fill="#FFF" d="M111.7,11.5l0.5-1.6l0.5-0.7h-3.4l-0.8,2.3h-2.8l0-2.3h-3.3l0.3,0.5l0,1.7h-1.1l-0.6-0.3l0.3-1.9H91l-0.7-0.4
			L90,10.8h1.1l-1.7,9.7l-0.5,0l-0.7-0.4l-0.4,2.5l6.5-0.9l-0.3,2h3.2l0.4-2.4l0.7-0.1c0.2,0,0.3,0,0.5,0s0.3,0.2,0.3,0.4l0.4-2.6
			l-1.6,0.2l1.5-8.5h0.8c0.1,0,0.3,0,0.5,0.1c0.2,0,0.3,0.2,0.3,0.3l-0.1-0.1l-0.4,2.1h5.2l-1.5,2.7h-3.5l-0.7-0.4l-0.4,2.1h3.6
			l-2.5,4.5h-1.3l-0.6-0.4l-0.4,2.1h4.7l2.3-4.3l1.2,4.3h3.4c0.1,0,0.3,0,0.4,0.1c0.2,0.1,0.3,0.2,0.3,0.4l0.4-2.2h-1.8l-1.5-4.4
			h3.1c0.2,0,0.3,0,0.5,0.1c0.2,0.1,0.3,0.2,0.3,0.4l0.4-2.2h-4.8l1.4-2.7h3c0.1,0,0.3,0,0.5,0.1c0.2,0.1,0.3,0.2,0.3,0.4l0.4-2.2
			H111.7z M94.7,19.8l-2,0.3l0.4-2.3H95L94.7,19.8z M95.3,16.1h-1.9l0.3-1.8h1.9L95.3,16.1z M95.9,12.8h-1.9l0.3-2h1.9L95.9,12.8z"
			/>
	</g>
	<g enable-background="new">
		<path fill="#BBB" d="M114.4,23.7c0-0.2,0.1-0.3,0.2-0.4c0.1-0.1,0.3-0.2,0.4-0.2c0.2,0,0.3,0.1,0.5,0.2c0.1,0.1,0.2,0.3,0.2,0.4
			c0,0.2-0.1,0.3-0.2,0.4c-0.1,0.1-0.3,0.2-0.5,0.2c-0.2,0-0.3-0.1-0.4-0.2C114.5,24,114.4,23.9,114.4,23.7z"/>
		<path fill="#BBB" d="M119.9,17c-0.2-0.1-0.4-0.1-0.6-0.1c-0.6,0-0.9,0.4-0.9,1.1v0.8h1.3v0.8h-1.3v4.6h-0.9v-4.6h-0.9v-0.8h0.9V18
			c0-0.6,0.2-1,0.5-1.4c0.3-0.3,0.8-0.5,1.3-0.5c0.3,0,0.5,0,0.7,0.1V17z"/>
		<path fill="#BBB" d="M123.3,17c-0.2-0.1-0.4-0.1-0.6-0.1c-0.6,0-0.9,0.4-0.9,1.1v0.8h1.3v0.8h-1.3v4.6h-0.9v-4.6H120v-0.8h0.9V18
			c0-0.6,0.2-1,0.5-1.4c0.3-0.3,0.8-0.5,1.3-0.5c0.3,0,0.5,0,0.7,0.1V17z"/>
		<path fill="#BBB" d="M128.7,24.2h-1v-0.9h0c-0.4,0.7-1,1-1.8,1c-0.7,0-1.2-0.2-1.6-0.7c-0.4-0.5-0.6-1.1-0.6-2
			c0-0.9,0.2-1.6,0.7-2.1c0.5-0.5,1.1-0.8,1.8-0.8c0.7,0,1.3,0.3,1.6,0.9h0v-3.3h1V24.2z M127.8,21c0-0.4-0.1-0.8-0.4-1.1
			c-0.3-0.3-0.6-0.4-1.1-0.4c-0.5,0-0.9,0.2-1.2,0.6c-0.3,0.4-0.4,0.9-0.4,1.6c0,0.6,0.1,1.1,0.4,1.4c0.3,0.4,0.7,0.5,1.1,0.5
			c0.5,0,0.8-0.2,1.1-0.5c0.3-0.3,0.4-0.8,0.4-1.3V21z"/>
		<path fill="#BBB" d="M130.3,16.9c0-0.2,0.1-0.3,0.2-0.4c0.1-0.1,0.3-0.2,0.4-0.2c0.2,0,0.3,0.1,0.4,0.2c0.1,0.1,0.2,0.3,0.2,0.4
			c0,0.2-0.1,0.3-0.2,0.4c-0.1,0.1-0.3,0.2-0.4,0.2s-0.3-0.1-0.4-0.2C130.4,17.2,130.3,17.1,130.3,16.9z M130.4,24.2v-5.4h1v5.4
			H130.4z"/>
		<path fill="#BBB" d="M137.8,23.8c0,2-1,3-2.9,3c-0.7,0-1.3-0.1-1.7-0.4v-0.9c0.6,0.3,1.2,0.5,1.7,0.5c1.3,0,2-0.7,2-2.1v-0.6h0
			c-0.4,0.7-1,1-1.8,1c-0.7,0-1.2-0.2-1.6-0.7s-0.6-1.1-0.6-1.9c0-0.9,0.2-1.7,0.7-2.2c0.4-0.5,1-0.8,1.8-0.8c0.7,0,1.3,0.3,1.6,0.9
			h0v-0.7h1V23.8z M136.8,21c0-0.4-0.1-0.8-0.4-1.1s-0.6-0.4-1-0.4c-0.5,0-0.9,0.2-1.2,0.6c-0.3,0.4-0.4,0.9-0.4,1.6
			c0,0.6,0.1,1,0.4,1.4s0.7,0.5,1.1,0.5c0.5,0,0.8-0.2,1.1-0.5s0.4-0.8,0.4-1.3V21z"/>
	</g>
</g>
</svg>
